<svg width="806" height="895" viewBox="0 0 806 895" fill="none" xmlns="http://www.w3.org/2000/svg">
<g id="allhack">
<g id="Hacker" clip-path="url(#clip0)">
<rect width="797" height="758" transform="translate(9 137)" fill="white"/>
<path id="Vector" d="M587.626 567.135V776.527L622.304 833.607L624.943 837.949H761.772L764.537 567.135H587.626Z" fill="#E6E6E6"/>
<path id="Vector_2" opacity="0.1" d="M587.626 567.135V776.527L622.304 833.607L624.432 567.135H587.626Z" fill="black"/>
<path id="Vector_3" d="M257.3 561.55V770.943L222.622 828.024L219.983 832.364H83.1541L80.3894 561.55H257.3Z" fill="#E6E6E6"/>
<path id="Vector_4" opacity="0.1" d="M257.3 561.55V770.943L222.622 828.024L220.494 561.55H257.3Z" fill="black"/>
<path id="Vector_5" d="M806 557.363V569.926H62.4219V551.778L131.527 515.483H745.187L806 557.363Z" fill="#E6E6E6"/>
<path id="Vector_6" opacity="0.1" d="M806 557.363V569.926H62.4219V551.778L806 557.363Z" fill="black"/>
<path id="Vector_7" d="M168.845 620.18H135.674L121.853 610.409H184.048L168.845 620.18Z" fill="#3F3D56"/>
<path id="Vector_8" d="M168.845 660.663H135.674L121.853 650.891H184.048L168.845 660.663Z" fill="#3F3D56"/>
<path id="Vector_9" d="M168.845 717.897H135.674L121.853 708.125H184.048L168.845 717.897Z" fill="#3F3D56"/>
<path id="Vector_10" d="M168.845 775.131H135.674L121.853 765.359H184.048L168.845 775.131Z" fill="#3F3D56"/>
<path id="Vector_11" d="M676.081 625.764H709.252L723.073 615.992H660.878L676.081 625.764Z" fill="#3F3D56"/>
<path id="Vector_12" d="M676.081 666.246H709.252L723.073 656.475H660.878L676.081 666.246Z" fill="#3F3D56"/>
<path id="Vector_13" d="M676.081 723.481H709.252L723.073 713.71H660.878L676.081 723.481Z" fill="#3F3D56"/>
<path id="Vector_14" d="M676.081 780.715H709.252L723.073 770.943H660.878L676.081 780.715Z" fill="#3F3D56"/>
<path id="Vector_15" d="M698.67 273.342H419.418C418.031 273.342 416.657 273.618 415.376 274.154C414.095 274.69 412.93 275.475 411.949 276.466C410.969 277.456 410.191 278.632 409.66 279.926C409.13 281.221 408.856 282.608 408.857 284.009V474.003C408.856 475.404 409.13 476.791 409.66 478.086C410.191 479.38 410.969 480.556 411.949 481.546C412.93 482.537 414.095 483.322 415.376 483.858C416.657 484.394 418.031 484.67 419.418 484.67H525.424L521.453 510.28C521.453 510.28 498.756 522.458 514.715 522.817C530.673 523.175 605.855 522.817 605.855 522.817C605.855 522.817 620.395 522.817 597.344 509.922L593.608 484.67H698.67C700.057 484.67 701.43 484.394 702.712 483.858C703.993 483.322 705.157 482.537 706.138 481.546C707.119 480.556 707.897 479.38 708.427 478.086C708.958 476.791 709.231 475.404 709.231 474.003V284.009C709.231 282.608 708.958 281.221 708.427 279.926C707.897 278.632 707.119 277.456 706.138 276.466C705.157 275.475 703.993 274.69 702.712 274.154C701.43 273.618 700.057 273.342 698.67 273.342V273.342Z" fill="#3F3D56"/>
<path id="Vector_16" d="M699.124 284.625H418.964V442.942H699.124V284.625Z" fill="#F2F2F2"/>
<path id="Vector_17" d="M559.044 281.401C560.023 281.401 560.817 280.599 560.817 279.61C560.817 278.621 560.023 277.819 559.044 277.819C558.064 277.819 557.271 278.621 557.271 279.61C557.271 280.599 558.064 281.401 559.044 281.401Z" fill="#F2F2F2"/>
<path id="Vector_18" d="M559.044 476.969C562.765 476.969 565.782 473.922 565.782 470.164C565.782 466.405 562.765 463.358 559.044 463.358C555.322 463.358 552.306 466.405 552.306 470.164C552.306 473.922 555.322 476.969 559.044 476.969Z" fill="#F2F2F2"/>
<path id="Vector_19" d="M548.544 542.158V545.741H357.752V542.875L358.014 542.158L362.716 529.264H544.643L548.544 542.158Z" fill="#3F3D56"/>
<path id="Vector_20" d="M621.967 538.652C621.62 540.153 620.307 541.736 617.343 543.233C606.704 548.606 585.071 541.8 585.071 541.8C585.071 541.8 568.403 538.935 568.403 531.413C568.871 531.089 569.359 530.796 569.864 530.535C574.337 528.145 589.168 522.248 615.465 530.785C617.402 531.399 619.132 532.545 620.463 534.094C621.053 534.679 621.496 535.398 621.758 536.19C622.019 536.982 622.091 537.826 621.967 538.652Z" fill="#3F3D56"/>
<path id="Vector_21" opacity="0.1" d="M621.967 538.652C608.945 543.692 597.338 544.068 585.426 535.711C580.921 532.348 575.466 530.533 569.864 530.535C574.337 528.145 589.168 522.248 615.465 530.785C617.402 531.399 619.132 532.545 620.463 534.094C621.053 534.679 621.496 535.398 621.758 536.19C622.019 536.982 622.091 537.826 621.967 538.652Z" fill="black"/>
<path id="Vector_22" d="M605.64 535.711C608.186 535.711 610.25 535.07 610.25 534.279C610.25 533.487 608.186 532.846 605.64 532.846C603.094 532.846 601.029 533.487 601.029 534.279C601.029 535.07 603.094 535.711 605.64 535.711Z" fill="#F2F2F2"/>
<path id="Vector_23" opacity="0.1" d="M548.544 542.158V545.741H357.752V542.875L358.014 542.158H548.544Z" fill="black"/>
<path id="Vector_24" d="M115.083 137C113.147 136.839 111.208 137.277 109.523 138.255C107.869 139.399 106.827 141.403 105.763 143.268C101.694 150.485 96.1856 156.769 89.5867 161.723C84.7803 165.279 78.6696 169.714 79.4919 176.271C79.9257 178.436 80.7178 180.512 81.8348 182.412C86.2688 191.452 98.3685 198.438 97.1783 208.754C101.584 201.305 95.6912 197.622 100.097 190.173C102.194 186.626 105.839 182.622 109.006 184.849C110.067 185.595 110.763 186.933 111.868 187.588C114.503 189.149 117.306 186.164 119.638 184.049C127.681 176.757 139.119 178.667 149.127 180.939C153.852 182.012 159.042 183.419 161.835 187.98C165.507 193.977 158.346 200.454 156.536 207.234C156.389 207.812 156.382 208.417 156.516 208.998C156.65 209.579 156.922 210.119 157.308 210.571C157.694 211.023 158.182 211.373 158.731 211.593C159.281 211.813 159.875 211.895 160.462 211.832C163.465 211.533 167.023 211.288 167.2 209.957C170.979 210.092 175.608 209.66 177.227 205.687C177.722 204.114 177.983 202.477 178.003 200.827C178.597 194.152 181.402 188.063 183.26 181.71C185.119 175.357 185.927 167.912 182.791 162.279C181.672 160.405 180.288 158.706 178.682 157.236C160.887 139.843 137.491 136.974 115.083 137Z" fill="#2F2E41"/>
<path id="Vector_25" d="M101.048 221.784C101.048 221.784 104.919 254.357 90.7282 256.963C76.5378 259.569 103.628 303.869 103.628 303.869L168.13 311.687L152.65 259.569C152.65 259.569 142.329 255.66 148.78 229.601C155.23 203.542 101.048 221.784 101.048 221.784Z" fill="#FFB8B8"/>
<path id="Vector_26" d="M61.7024 781.399L66.8631 853.062H93.9528L86.2135 781.399H61.7024Z" fill="#FFB8B8"/>
<path id="Vector_27" d="M260.367 645.893L264.237 705.828L293.909 692.799L282.298 643.287L260.367 645.893Z" fill="#FFB8B8"/>
<path id="Vector_28" d="M42.352 507.781C42.352 507.781 43.642 583.351 51.3823 608.107C59.1225 632.863 57.8324 634.166 56.5424 638.075C55.2524 641.984 53.9623 639.378 53.9623 645.893C53.9623 652.408 51.3823 755.341 53.9623 764.461C56.5424 773.582 46.2221 789.217 53.9623 790.52C61.7025 791.823 97.8234 790.52 99.1135 782.702C100.403 774.885 88.7932 772.279 93.9534 767.067C99.1135 761.855 106.854 655.014 106.854 655.014L124.914 580.746L158.455 541.657H229.407L251.337 627.652C251.337 627.652 242.307 652.408 248.757 652.408C255.207 652.408 293.908 660.225 293.908 631.561C293.908 602.896 281.008 518.204 278.428 515.598C275.848 512.992 279.718 503.872 275.848 499.963C271.978 496.054 226.827 468.692 210.056 463.48C193.286 458.269 169.76 452.066 169.76 452.066L42.352 507.781Z" fill="#2F2E41"/>
<path id="Vector_29" d="M293.908 682.376C293.908 682.376 274.558 675.861 265.528 695.405C256.497 714.949 260.367 720.161 260.367 720.161C260.367 720.161 290.038 730.585 295.198 725.373C297.443 723.105 304.572 722.318 311.91 722.151C323.087 721.898 326.06 705.928 315.505 702.209C315.19 702.098 314.871 702.002 314.549 701.92C304.229 699.314 293.908 682.376 293.908 682.376Z" fill="#2F2E41"/>
<path id="Vector_30" d="M130.074 243.282C151.448 243.282 168.775 225.782 168.775 204.194C168.775 182.606 151.448 165.105 130.074 165.105C108.7 165.105 91.3732 182.606 91.3732 204.194C91.3732 225.782 108.7 243.282 130.074 243.282Z" fill="#FFB8B8"/>
<path id="Vector_31" d="M79.7629 273.25C79.7629 273.25 142.975 286.28 158.455 265.432C173.935 244.585 180.385 324.065 180.385 324.065L188.126 407.454L176.515 453.057C176.515 453.057 115.884 502.569 96.5333 506.478C77.1829 510.386 47.5121 512.992 47.5121 512.992C47.5121 512.992 56.5424 368.365 56.5424 365.759C56.5424 363.153 79.7629 273.25 79.7629 273.25Z" fill="#6233B9"/>
<path id="Vector_32" d="M98.9871 248.814C98.9871 248.814 84.923 240.676 81.0529 248.494C77.1828 256.312 41.0619 275.856 37.1918 275.856C33.3217 275.856 44.932 384.001 39.7719 397.03C34.6118 410.06 10.1011 505.175 24.2915 512.992C38.4819 520.81 28.1616 505.175 42.352 524.719C56.5423 544.263 126.204 544.263 130.074 536.445C133.944 528.628 99.1134 469.995 105.564 415.271C112.014 360.548 122.334 284.977 113.304 274.553C104.274 264.129 98.9871 248.814 98.9871 248.814Z" fill="#2F2E41"/>
<path id="Vector_33" d="M145.555 257.615L147.352 251.369C147.352 251.369 201.026 269.341 203.606 281.068C206.186 292.794 204.896 374.88 195.866 381.395C186.836 387.909 173.935 398.333 182.966 413.968C191.996 429.604 202.316 446.542 210.056 447.845C217.797 449.148 231.987 458.269 228.117 467.389C224.247 476.51 177.805 459.571 177.805 459.571C177.805 459.571 146.845 436.118 148.135 399.636C149.425 363.153 145.555 257.615 145.555 257.615Z" fill="#2F2E41"/>
<path id="Vector_34" d="M190.706 411.362L159.745 469.995C159.745 469.995 114.594 516.901 140.394 522.113C166.195 527.325 180.385 479.116 180.385 479.116L213.926 430.907L190.706 411.362Z" fill="#FFB8B8"/>
<path id="Vector_35" d="M115.859 143.793C114.299 143.676 112.736 143.982 111.333 144.679C110.064 145.616 109.018 146.826 108.271 148.223C104.83 153.451 100.345 157.894 95.1035 161.267C91.1908 163.781 86.2165 166.915 86.8859 171.549C87.2493 173.103 87.896 174.575 88.793 175.889C92.415 182.344 93.8568 189.814 92.9005 197.17L103.659 181.375C105.367 178.868 108.333 176.038 110.912 177.613C111.775 178.14 112.342 179.085 113.241 179.548C115.386 180.652 117.668 178.541 119.567 177.047C126.114 171.893 135.425 173.243 143.572 174.849C147.418 175.607 151.643 176.602 153.917 179.825C157.695 185.183 153.75 192.924 155.955 199.113C156.572 198.676 157.096 198.119 157.497 197.474C157.897 196.829 158.165 196.109 158.284 195.358C161.36 195.454 165.129 195.149 166.446 192.34C166.847 191.239 167.061 190.078 167.078 188.905C167.562 184.188 169.845 179.884 171.358 175.393C172.87 170.903 173.528 165.641 170.976 161.66C170.042 160.311 168.915 159.11 167.631 158.095C153.145 145.802 134.1 143.775 115.859 143.793Z" fill="#2F2E41"/>
<path id="Vector_36" d="M190.706 275.856L202.725 279.078C202.725 279.078 230.697 351.427 224.247 400.939C217.796 450.451 213.926 440.027 213.926 440.027C213.926 440.027 203.606 416.574 180.385 421.786L190.706 275.856Z" fill="#2F2E41"/>
<path id="Vector_37" d="M63.4898 843.591C60.3789 847.861 61.0026 853.964 58.247 858.476C55.8584 862.387 51.3568 864.437 48.369 867.903C47.4157 869.054 46.5658 870.289 45.8295 871.593C43.058 876.282 40.8052 882.291 43.5348 887.005C45.7306 890.797 50.346 892.279 54.5789 893.289C59.929 894.566 65.4878 895.588 70.8997 894.612C76.3115 893.636 81.6007 890.289 83.5303 885.09C83.9095 883.783 84.3604 882.498 84.8808 881.241C87.8141 875.408 97.0147 875.345 100.017 869.549C102.118 865.492 100.186 860.588 98.256 856.446L92.3601 843.795C90.4035 839.597 82.4718 842.011 78.3368 841.005C72.9439 839.693 67.3694 838.247 63.4898 843.591Z" fill="#2F2E41"/>
<path id="Vector_38" d="M20.4214 437.421L74.6028 522.113C74.6028 522.113 108.144 565.11 118.464 545.566C128.784 526.022 82.343 493.448 82.343 493.448L47.5121 428.301L20.4214 437.421Z" fill="#FFB8B8"/>
<path id="Vector_39" d="M47.5121 278.462L37.1918 275.856C37.1918 275.856 16.5513 282.371 11.3912 309.733C6.23106 337.094 10.1011 446.542 16.5513 447.845C23.0015 449.148 48.4086 428.788 52.4755 433.105C56.5423 437.421 43.642 415.271 47.512 403.545C51.3821 391.818 47.5121 278.462 47.5121 278.462Z" fill="#2F2E41"/>
<g id="code">
<path id="Rectangle 55" d="M532.527 336.621H499.185V344.729H532.527V336.621Z" fill="#6233B9"/>
<path id="Rectangle 56" d="M647.99 336.621H636.258V344.729H647.99V336.621Z" fill="#6233B9"/>
<path id="Rectangle 57" d="M671.453 336.621H659.721V344.729H671.453V336.621Z" fill="#6233B9"/>
<path id="Rectangle 58" d="M623.909 336.621H544.258V344.729H623.909V336.621Z" fill="#6233B9"/>
<path id="Rectangle 59" d="M490.54 389.006H457.198V397.114H490.54V389.006Z" fill="#6233B9"/>
<path id="Rectangle 60" d="M606.003 389.006H594.272V397.114H606.003V389.006Z" fill="#6233B9"/>
<path id="Rectangle 61" d="M629.466 389.006H617.735V397.114H629.466V389.006Z" fill="#6233B9"/>
<path id="Rectangle 62" d="M581.923 389.006H502.272V397.114H581.923V389.006Z" fill="#6233B9"/>
<path id="Rectangle 63" d="M628.231 354.707H594.889V362.814H628.231V354.707Z" fill="#6233B9"/>
<path id="Rectangle 64" d="M673.305 354.707H639.963V362.814H673.305V354.707Z" fill="#6233B9"/>
<path id="Rectangle 66" d="M468.93 354.707H457.198V362.814H468.93V354.707Z" fill="#6233B9"/>
<path id="Rectangle 67" d="M492.393 354.707H480.661V362.814H492.393V354.707Z" fill="#6233B9"/>
<path id="Rectangle 68" d="M583.775 354.707H504.124V362.814H583.775V354.707Z" fill="#6233B9"/>
<path id="Rectangle 69" d="M559.077 372.168H525.735V380.276H559.077V372.168Z" fill="#6233B9"/>
<path id="Rectangle 70" d="M514.003 372.168H480.661V380.276H514.003V372.168Z" fill="#6233B9"/>
<path id="Rectangle 71" d="M468.93 372.168H457.198V380.276H468.93V372.168Z" fill="#6233B9"/>
<path id="Rectangle 73" d="M673.305 372.168H661.574V380.276H673.305V372.168Z" fill="#6233B9"/>
<path id="Rectangle 74" d="M649.842 372.168H570.191V380.276H649.842V372.168Z" fill="#6233B9"/>
</g>
<g id="python" clip-path="url(#clip1)">
<g id="Page 1">
<g id="125   Python Files">
<g id="Icons">
<path id="Shape" d="M338.012 324.919L320.678 383.745C319.846 386.57 316.894 388.189 314.086 387.362L268.319 373.876C265.511 373.049 263.909 370.088 264.742 367.262L278.684 319.946L290.125 323.318C292.934 324.145 295.885 322.526 296.718 319.701L300.109 308.191L334.434 318.306C337.242 319.133 338.844 322.094 338.012 324.919Z" fill="#00BCD4"/>
<path id="Shape_2" d="M334.434 318.306L330.62 317.182C333.428 318.009 335.03 320.97 334.198 323.795L316.865 382.621C316.032 385.446 313.081 387.065 310.272 386.238L314.086 387.362C316.894 388.189 319.846 386.57 320.678 383.745L338.012 324.919C338.844 322.094 337.242 319.133 334.434 318.306Z" fill="#00838F"/>
<path id="Shape_3" d="M341.59 331.533L324.256 390.358C323.424 393.183 320.472 394.803 317.664 393.975L271.897 380.49C269.089 379.662 267.487 376.701 268.319 373.876L314.086 387.362C316.894 388.189 319.846 386.57 320.678 383.745L338.012 324.919C340.82 325.747 342.422 328.708 341.59 331.533Z" fill="#3F51B5"/>
<path id="Shape_4" d="M322.471 349.527L320.21 357.2C319.378 360.025 316.426 361.644 313.618 360.816L307.261 358.944L305.377 365.338C304.545 368.163 301.593 369.782 298.785 368.954L291.157 366.707C288.348 365.879 286.747 362.918 287.579 360.093L290.594 349.863C291.426 347.038 294.377 345.418 297.186 346.246L304.814 348.493C307.622 349.321 310.574 347.702 311.406 344.877L312.537 341.04L318.893 342.913C321.701 343.741 323.303 346.702 322.471 349.527Z" fill="#FFDC00"/>
<path id="Shape_5" d="M301.563 364.214C300.731 367.039 297.779 368.658 294.971 367.831L298.785 368.954C301.593 369.782 304.545 368.163 305.377 365.338L307.261 358.944L303.447 357.82L301.563 364.214Z" fill="#FEC108"/>
<path id="Shape_6" d="M318.893 342.913L315.079 341.789C317.888 342.617 319.49 345.578 318.657 348.403L316.396 356.076C315.564 358.901 312.612 360.52 309.804 359.693L313.618 360.816C316.426 361.644 319.378 360.025 320.21 357.2L322.471 349.527C323.303 346.702 321.702 343.741 318.893 342.913Z" fill="#FEC108"/>
<path id="Shape_7" d="M314.421 334.646L311.406 344.877C310.574 347.702 307.622 349.321 304.814 348.493L297.186 346.246C294.377 345.418 291.426 347.038 290.594 349.863L289.463 353.699L283.107 351.826C280.298 350.999 278.696 348.038 279.529 345.213L281.79 337.54C282.622 334.715 285.574 333.095 288.382 333.923L294.738 335.796L296.623 329.402C297.455 326.577 300.407 324.957 303.215 325.785L310.843 328.032C313.651 328.86 315.253 331.821 314.421 334.646Z" fill="#3F51B5"/>
<path id="Shape_8" d="M310.843 328.032L307.029 326.909C309.837 327.736 311.439 330.697 310.607 333.522L307.592 343.753C306.76 346.578 303.808 348.197 301 347.37L304.814 348.493C307.622 349.321 310.574 347.702 311.406 344.877L314.421 334.646C315.253 331.821 313.651 328.86 310.843 328.032Z" fill="#283593"/>
<path id="Shape_9" d="M286.78 348.739L285.649 352.575L289.463 353.699L290.594 349.863C291.426 347.038 294.377 345.418 297.186 346.246L293.372 345.122C290.564 344.295 287.612 345.914 286.78 348.739Z" fill="#283593"/>
<path id="Shape_10" d="M300.109 308.191L296.718 319.701C295.885 322.526 292.934 324.145 290.125 323.318L278.684 319.946L300.109 308.191Z" fill="#00695C"/>
<g id="Group">
<path id="Shape_11" d="M324.922 322.452L317.294 320.204C316.592 319.998 316.192 319.257 316.4 318.551C316.608 317.845 317.346 317.44 318.048 317.647L325.676 319.894C326.378 320.101 326.778 320.842 326.57 321.548C326.362 322.254 325.624 322.659 324.922 322.452Z" fill="#F5F5F5"/>
<path id="Shape_12" d="M332.55 324.7L330.007 323.95C329.305 323.744 328.905 323.003 329.113 322.297C329.321 321.591 330.059 321.186 330.761 321.393L333.303 322.142C334.006 322.349 334.406 323.089 334.198 323.795C333.99 324.502 333.252 324.906 332.55 324.7Z" fill="#F5F5F5"/>
</g>
</g>
<g id="Layer 2">
<path id="Shape_13" d="M271.521 381.769L317.287 395.254C320.797 396.284 324.483 394.261 325.528 390.733L342.861 331.907C343.763 328.827 342.354 325.544 339.508 324.098C339.845 320.906 337.87 317.934 334.811 317.027L300.486 306.913C300.149 306.813 299.786 306.853 299.477 307.022L278.051 318.777C277.742 318.947 277.512 319.233 277.412 319.572L263.47 366.888C262.568 369.969 263.977 373.251 266.823 374.697C266.487 377.889 268.461 380.861 271.521 381.769ZM340.318 331.158L322.985 389.984C322.361 392.103 320.147 393.317 318.041 392.696L272.274 379.211C270.666 378.73 269.535 377.284 269.448 375.598L313.709 388.64C317.219 389.67 320.905 387.648 321.95 384.119L338.837 326.808C340.196 327.795 340.789 329.536 340.318 331.158V331.158ZM297.928 310.904L295.446 319.326C294.822 321.445 292.608 322.659 290.502 322.039L282.129 319.572L297.928 310.904ZM266.013 367.637L279.578 321.6L289.748 324.596C293.258 325.626 296.945 323.604 297.989 320.075L301.003 309.845L334.057 319.584C336.163 320.205 337.365 322.426 336.74 324.545L319.407 383.37C318.783 385.489 316.569 386.703 314.463 386.083L268.696 372.597C266.59 371.977 265.388 369.756 266.013 367.637Z" fill="black"/>
<path id="Shape_14" d="M271.098 369.135L272.369 369.51C273.071 369.717 273.809 369.312 274.017 368.606C274.225 367.9 273.825 367.159 273.123 366.952L271.852 366.578C271.149 366.371 270.412 366.776 270.203 367.482C269.995 368.188 270.396 368.929 271.098 369.135Z" fill="black"/>
<path id="Shape_15" d="M303.634 375.943C302.932 375.736 302.194 376.141 301.986 376.847C301.778 377.553 302.178 378.293 302.88 378.5L314.322 381.872C315.024 382.079 315.762 381.674 315.97 380.967C316.178 380.261 315.778 379.521 315.076 379.314L303.634 375.943Z" fill="black"/>
<path id="Shape_16" d="M297.277 374.07L278.208 368.451C277.506 368.244 276.768 368.649 276.56 369.355C276.352 370.061 276.752 370.802 277.454 371.008L296.524 376.627C297.226 376.834 297.964 376.429 298.172 375.723C298.38 375.017 297.98 374.277 297.277 374.07Z" fill="black"/>
<path id="Shape_17" d="M282.73 353.105L287.815 354.603L286.308 359.719C285.272 363.249 287.273 366.948 290.78 367.986L298.408 370.233C301.918 371.263 305.604 369.241 306.648 365.712L308.156 360.597L313.241 362.095C316.751 363.125 320.437 361.103 321.481 357.574L323.742 349.901C324.778 346.37 322.777 342.672 319.27 341.634L314.185 340.136L315.692 335.021C316.728 331.49 314.727 327.792 311.22 326.754L303.592 324.506C300.082 323.476 296.395 325.499 295.351 329.027L293.844 334.142L288.759 332.644C285.249 331.614 281.563 333.637 280.518 337.165L278.257 344.838C277.222 348.369 279.222 352.067 282.73 353.105ZM318.516 344.192C320.623 344.813 321.824 347.033 321.2 349.152L318.939 356.825C318.314 358.944 316.101 360.158 313.994 359.538L298.739 355.043C298.037 354.836 297.299 355.24 297.091 355.947C296.883 356.653 297.283 357.393 297.985 357.6L305.613 359.848L304.106 364.963C303.482 367.082 301.268 368.296 299.162 367.676L291.534 365.428C289.427 364.807 288.226 362.587 288.85 360.468L291.865 350.237C292.489 348.118 294.703 346.904 296.809 347.525L304.437 349.772C307.947 350.802 311.633 348.779 312.677 345.251L313.431 342.693L318.516 344.192ZM283.061 337.914C283.685 335.795 285.899 334.581 288.005 335.202L303.261 339.697C303.963 339.904 304.701 339.499 304.909 338.793C305.117 338.086 304.716 337.346 304.014 337.139L296.387 334.892L297.894 329.776C298.518 327.657 300.732 326.443 302.838 327.064L310.466 329.311C312.572 329.932 313.774 332.153 313.149 334.271L310.135 344.502C309.511 346.621 307.297 347.835 305.191 347.215L297.563 344.967C294.053 343.937 290.366 345.96 289.322 349.488L288.569 352.046L283.483 350.547C281.377 349.927 280.176 347.706 280.8 345.587L283.061 337.914Z" fill="black"/>
<path id="Oval" d="M302.225 333.832C302.927 334.039 303.665 333.634 303.873 332.928C304.082 332.222 303.681 331.482 302.979 331.275C302.277 331.068 301.539 331.473 301.331 332.179C301.123 332.885 301.523 333.625 302.225 333.832Z" fill="black"/>
<path id="Oval_2" d="M299.021 363.465C299.723 363.671 300.461 363.267 300.669 362.56C300.877 361.854 300.476 361.114 299.774 360.907C299.072 360.7 298.334 361.105 298.126 361.811C297.918 362.517 298.319 363.258 299.021 363.465Z" fill="black"/>
</g>
</g>
</g>
</g>
<g id="java " clip-path="url(#clip2)">
<g id="Flame">
<path id="Vector_40" d="M475.03 147.344C470.64 150.561 465.665 154.208 462.999 160.241C458.369 170.766 472.474 182.248 473.076 182.731C473.216 182.843 473.384 182.9 473.551 182.9C473.729 182.9 473.907 182.836 474.051 182.71C474.331 182.466 474.41 182.052 474.242 181.714C474.191 181.612 469.128 171.363 469.317 164.012C469.383 161.451 472.822 158.546 476.462 155.471C479.797 152.654 483.576 149.461 485.788 145.726C490.642 137.506 485.247 129.422 485.192 129.341C484.977 129.027 484.582 128.914 484.243 129.068C483.905 129.224 483.718 129.605 483.795 129.981C483.806 130.035 484.856 135.38 481.936 140.888C480.733 143.164 478.09 145.101 475.03 147.344Z" fill="#DB380E"/>
<path id="Vector_41" d="M493.524 150.969C493.833 150.726 493.924 150.283 493.737 149.929C493.55 149.575 493.141 149.419 492.779 149.562C492.033 149.858 474.518 156.894 474.518 165.395C474.518 171.255 476.92 174.35 478.674 176.611C479.362 177.498 479.956 178.264 480.152 178.917C480.703 180.801 479.397 184.206 478.848 185.36C478.69 185.691 478.767 186.093 479.037 186.335C479.182 186.466 479.364 186.532 479.546 186.532C479.7 186.532 479.856 186.484 479.99 186.387C480.291 186.169 487.35 180.968 486.084 174.702C485.613 172.32 484.49 170.58 483.499 169.044C481.963 166.665 480.855 164.946 482.537 161.772C484.508 158.069 493.433 151.039 493.524 150.969Z" fill="#DB380E"/>
</g>
<g id="Group_2">
<path id="Vector_42" d="M447.931 186.667C447.631 187.604 447.773 188.533 448.341 189.355C450.239 192.102 456.965 193.615 467.279 193.615C467.28 193.615 467.28 193.615 467.28 193.615C468.678 193.615 470.153 193.586 471.665 193.53C488.155 192.915 494.272 187.561 494.524 187.333C494.799 187.085 494.872 186.672 494.702 186.338C494.53 186.004 494.162 185.836 493.809 185.937C488.002 187.59 477.157 188.177 469.635 188.177C461.218 188.177 456.931 187.545 455.882 187.078C456.42 186.307 459.742 184.932 463.857 184.088C464.251 184.007 464.521 183.629 464.482 183.213C464.443 182.797 464.108 182.48 463.707 182.48C461.294 182.48 449.196 182.682 447.931 186.667Z" fill="#73A1FB"/>
<path id="Vector_43" d="M503.112 181.153C499.711 181.153 496.485 182.929 496.349 183.005C496.035 183.18 495.875 183.556 495.962 183.917C496.048 184.278 496.359 184.531 496.716 184.532C496.788 184.532 503.972 184.593 504.622 188.87C505.198 192.56 497.826 198.538 494.936 200.53C494.624 200.746 494.503 201.161 494.648 201.521C494.771 201.827 495.057 202.018 495.365 202.018C495.419 202.018 495.474 202.013 495.528 202.001C496.214 201.848 512.303 198.153 510.602 188.391C509.564 182.409 505.956 181.153 503.112 181.153Z" fill="#73A1FB"/>
<path id="Vector_44" d="M492.078 199.336C492.134 199.023 492.009 198.705 491.76 198.522L487.902 195.706C487.714 195.569 487.476 195.526 487.255 195.587C487.215 195.597 483.181 196.703 477.324 197.38C474.999 197.652 472.396 197.796 469.794 197.796C463.939 197.796 460.11 197.079 459.552 196.553C459.479 196.405 459.502 196.338 459.515 196.301C459.616 196.007 460.159 195.658 460.509 195.52C460.896 195.371 461.104 194.934 460.984 194.523C460.864 194.112 460.457 193.87 460.056 193.97C456.187 194.943 454.294 196.304 454.432 198.015C454.677 201.048 461.418 202.605 467.117 203.016C467.937 203.075 468.823 203.104 469.751 203.104C469.751 203.104 469.752 203.104 469.752 203.104C479.229 203.104 491.378 200.005 491.499 199.974C491.796 199.899 492.022 199.649 492.078 199.336Z" fill="#73A1FB"/>
<path id="Vector_45" d="M462.995 205.845C463.287 205.647 463.416 205.271 463.313 204.924C463.209 204.577 462.898 204.349 462.549 204.354C462.03 204.369 457.474 204.583 457.155 207.606C457.059 208.509 457.307 209.334 457.893 210.059C459.529 212.079 463.945 213.28 471.39 213.729C472.271 213.784 473.166 213.812 474.05 213.812C483.516 213.812 489.891 210.723 490.158 210.592C490.417 210.464 490.587 210.199 490.602 209.902C490.618 209.604 490.475 209.321 490.231 209.166L485.356 206.064C485.186 205.957 484.984 205.921 484.791 205.962C484.76 205.969 481.665 206.638 476.993 207.299C476.109 207.424 475.002 207.488 473.703 207.488C469.037 207.488 463.846 206.693 462.851 206.173C462.836 206.076 462.855 205.953 462.995 205.845Z" fill="#73A1FB"/>
<path id="Vector_46" d="M469.638 223.137C491.32 223.118 502.957 219.1 505.199 216.571C505.993 215.677 506.078 214.83 506.011 214.277C505.844 212.916 504.655 212.082 504.52 211.992C504.194 211.774 503.757 211.831 503.504 212.136C503.25 212.441 503.244 212.887 503.499 213.192C503.635 213.375 503.714 213.682 503.315 214.099C502.418 214.971 493.379 217.619 478.329 218.414C476.268 218.526 474.105 218.583 471.903 218.583C458.428 218.583 448.566 216.66 447.272 215.539C447.77 214.792 451.259 213.598 454.968 212.923C455.386 212.847 455.669 212.436 455.604 211.999C455.539 211.563 455.153 211.262 454.73 211.319C454.626 211.334 454.271 211.356 453.859 211.382C447.739 211.772 440.665 212.64 440.296 215.926C440.184 216.928 440.47 217.837 441.145 218.628C442.798 220.564 447.55 223.137 469.638 223.137C469.638 223.137 469.638 223.137 469.638 223.137Z" fill="#73A1FB"/>
<path id="Vector_47" d="M509.458 217.284C509.151 217.136 508.789 217.211 508.561 217.468C508.529 217.504 505.269 221.056 495.468 223.142C491.715 223.926 484.672 224.323 474.533 224.323C464.375 224.323 454.709 223.906 454.613 223.902C454.209 223.882 453.864 224.188 453.809 224.602C453.754 225.015 454.01 225.406 454.4 225.502C454.5 225.527 464.63 228 478.48 228C485.123 228 491.587 227.438 497.693 226.329C509.079 224.249 509.876 218.365 509.904 218.116C509.944 217.767 509.764 217.432 509.458 217.284Z" fill="#73A1FB"/>
</g>
</g>
</g>
<g id="Cpp">
<path id="Vector_48" d="M310.853 120.151C310.011 120.39 309.465 120.641 309.189 120.812L310.807 126.511C311.186 126.496 311.628 126.403 312.226 126.233C314.43 125.608 315.454 124.048 314.893 122.07C314.388 120.292 312.919 119.565 310.853 120.151Z" fill="#FF0000"/>
<path id="Vector_49" d="M295.055 124.636C294.213 124.875 293.666 125.126 293.391 125.297L295.009 130.996C295.388 130.98 295.832 130.888 296.43 130.718C298.633 130.092 299.657 128.533 299.095 126.554C298.589 124.778 297.122 124.05 295.055 124.636Z" fill="#FF0000"/>
<path id="Vector_50" d="M318.884 109.587L317.268 110.046L314.935 101.827C314.92 101.775 314.898 101.726 314.877 101.675C314.782 101.35 314.592 101.057 314.308 100.864L296.899 88.9231C296.894 88.9199 296.89 88.9197 296.886 88.9164C296.783 88.8473 296.671 88.7968 296.557 88.7587C296.523 88.7463 296.49 88.7377 296.456 88.7289C296.36 88.7051 296.261 88.6903 296.163 88.6873C296.136 88.6875 296.111 88.6831 296.085 88.6831C295.98 88.6866 295.874 88.7002 295.771 88.7294L263.887 97.781C262.431 98.1944 261.602 99.7786 262.038 101.312L268.451 123.904L266.836 124.363C264.753 124.954 263.57 127.214 264.193 129.41L270.063 150.087C270.686 152.282 272.881 153.584 274.963 152.993L276.579 152.534L280.597 166.689C281.033 168.222 282.57 169.135 284.026 168.722L327.565 156.361C329.02 155.948 329.85 154.364 329.414 152.83L325.396 138.676L327.012 138.217C329.094 137.626 330.277 135.366 329.654 133.17L323.784 112.494C323.161 110.296 320.966 108.996 318.884 109.587ZM264.676 100.563L295.241 91.886L299.282 106.119C299.5 106.888 300.268 107.342 300.996 107.136L312.652 103.827L314.63 110.796L271.09 123.156L264.676 100.563ZM303.169 125.275C303.706 127.167 303.562 128.942 302.784 130.339C301.77 132.146 299.857 133.37 297.409 134.065C296.866 134.219 296.369 134.331 295.97 134.381L297.931 141.287L293.827 142.452L288.417 123.395C289.63 122.803 291.375 122.121 293.902 121.404C296.457 120.678 298.426 120.675 299.942 121.363C301.388 122.002 302.632 123.384 303.169 125.275ZM274.144 137.914C272.272 131.321 275.69 126.388 281.235 124.814C283.383 124.204 285.144 124.2 285.991 124.391L286.133 128.098C285.186 127.963 283.92 127.955 282.452 128.371C279.162 129.305 277.2 132.12 278.421 136.42C279.519 140.289 282.387 142.106 286.084 141.056C287.332 140.702 288.639 140.023 289.354 139.447L290.949 142.679C290.302 143.298 288.71 144.213 286.48 144.846C280.15 146.643 275.706 143.417 274.144 137.914ZM326.562 152.825L283.022 165.186L279.218 151.785L322.757 139.425L326.562 152.825L326.562 152.825ZM318.583 125.854C317.569 127.661 315.654 128.885 313.208 129.58C312.664 129.734 312.168 129.846 311.769 129.895L313.73 136.801L309.626 137.967L304.216 118.91C305.429 118.318 307.173 117.636 309.703 116.918C312.256 116.193 314.225 116.19 315.74 116.878C317.186 117.518 318.43 118.9 318.967 120.791C319.504 122.683 319.362 124.457 318.583 125.854Z" fill="#FF0000"/>
</g>
<g id="idea" clip-path="url(#clip3)">
<path id="Vector_51" d="M92.6842 55.3281C96.516 63.571 96.3981 72.9074 92.4536 80.9597C90.8306 84.2202 90.4068 87.7122 91.2313 90.8559C91.1388 90.8525 91.1014 90.8699 91.0266 90.9047L68.583 101.338C68.5082 101.373 68.396 101.425 68.3389 101.498C66.4138 98.7263 63.6561 96.8061 60.6686 96.1529C49.587 93.6469 40.9819 85.1169 38.2515 73.7631C35.6078 62.694 39.8183 50.7125 48.7552 44.0057C55.8496 38.6195 64.8517 36.848 73.3457 39.0718C81.8948 41.3164 88.9234 47.2378 92.6842 55.3281V55.3281Z" fill="#FFC107"/>
<path id="Vector_52" d="M91.2314 90.8559C91.4207 91.5568 91.6475 92.2404 91.9668 92.9273L95.905 101.399C97.608 105.063 96.0544 109.451 92.4634 111.12L83.1119 115.468C79.9698 116.928 75.4305 116.068 72.947 110.726L69.807 103.971C69.399 103.093 68.9162 102.25 68.3389 101.498C68.396 101.425 68.5082 101.373 68.583 101.338L91.0266 90.9047C91.1014 90.8699 91.1388 90.8525 91.2314 90.8559Z" fill="#607D8B"/>
<path id="Vector_53" d="M90.8821 97.9331L74.0494 105.758C72.5008 106.478 70.6479 105.78 69.9135 104.2C69.179 102.62 69.8398 100.754 71.3884 100.034L88.2211 92.2089C89.7697 91.489 91.6226 92.187 92.357 93.7668C93.0915 95.3467 92.4307 97.2132 90.8821 97.9331Z" fill="black"/>
<path id="Vector_54" d="M51.345 34.8985C49.7964 35.6184 47.9435 34.9204 47.2091 33.3405L43.7374 25.8723C43.003 24.2924 43.6638 22.4259 45.2124 21.706C46.761 20.9862 48.6139 21.6841 49.3483 23.264L52.8199 30.7323C53.5544 32.3121 52.8936 34.1786 51.345 34.8985Z" fill="black"/>
<path id="Vector_55" d="M80.7532 33.8602C80.035 34.194 79.1873 34.2493 78.3804 33.9422C76.7646 33.3336 75.922 31.5209 76.4982 29.8933L79.22 22.2051C79.7962 20.5775 81.573 19.7516 83.1888 20.3602C84.8046 20.9689 85.6472 22.7816 85.071 24.4092L82.3492 32.0973C82.0583 32.9101 81.4714 33.5263 80.7532 33.8602V33.8602Z" fill="black"/>
<path id="Vector_56" d="M109.912 50.8002L102.592 54.2031C101.043 54.923 99.1903 54.225 98.4559 52.6451C97.7215 51.0652 98.3823 49.1987 99.9309 48.4788L107.251 45.0759C108.8 44.356 110.653 45.054 111.387 46.6339C112.122 48.2138 111.461 50.0803 109.912 50.8002Z" fill="black"/>
<path id="Vector_57" d="M111.699 86.8872C110.981 87.2211 110.133 87.2764 109.326 86.9693L101.694 84.0942C100.078 83.4856 99.2355 81.6729 99.8117 80.0453C100.388 78.4177 102.165 77.5917 103.78 78.2004L111.413 81.0754C113.028 81.684 113.871 83.4967 113.295 85.1243C113.006 85.9409 112.417 86.5534 111.699 86.8872Z" fill="black"/>
<path id="Vector_58" d="M52.186 114.552C51.4678 114.886 50.6201 114.941 49.8132 114.634C48.1974 114.026 47.3548 112.213 47.931 110.585L50.6528 102.897C51.229 101.27 53.0058 100.444 54.6216 101.052C56.2374 101.661 57.08 103.474 56.5038 105.101L53.782 112.789C53.4929 113.606 52.9042 114.218 52.186 114.552V114.552Z" fill="black"/>
<path id="Vector_59" d="M33.0691 86.5212L25.7488 89.9241C24.2002 90.644 22.3473 89.946 21.6129 88.3661C20.8784 86.7862 21.5392 84.9197 23.0878 84.1999L30.4082 80.797C31.9568 80.0771 33.8097 80.7751 34.5441 82.3549C35.2785 83.9348 34.6177 85.8013 33.0691 86.5212Z" fill="black"/>
<path id="Vector_60" d="M31.5943 56.712C30.8761 57.0459 30.0284 57.1012 29.2215 56.7941L21.5893 53.919C19.9736 53.3104 19.1309 51.4977 19.7072 49.8701C20.2834 48.2425 22.0602 47.4165 23.6759 48.0252L31.3081 50.9002C32.9238 51.5089 33.7665 53.3215 33.1903 54.9491C32.8957 55.7637 32.3125 56.3782 31.5943 56.712V56.712Z" fill="black"/>
<path id="Vector_61" d="M81.4142 62.8874C79.8656 63.6073 78.0127 62.9093 77.2783 61.3294C74.5872 55.5403 67.7877 52.979 62.1132 55.6168C60.5646 56.3367 58.7117 55.6387 57.9773 54.0588C57.2429 52.4789 57.9037 50.6124 59.4523 49.8926C68.2165 45.8185 78.7328 49.7799 82.8892 58.7212C83.6236 60.3011 82.9628 62.1675 81.4142 62.8874Z" fill="black"/>
<path id="Vector_62" d="M92.4634 111.12L83.1119 115.468C79.9586 116.933 75.4305 116.068 72.9399 110.71L69.8106 103.979C67.9284 99.9296 64.5098 96.9986 60.667 96.1397C49.5756 93.6615 40.9935 85.0929 38.2678 73.7788C35.5948 62.6954 39.8069 50.7271 48.7461 43.996C55.8511 38.6327 64.8352 36.8418 73.3657 39.0857C81.8853 41.3254 88.9269 47.2455 92.6842 55.3281C96.5124 63.5634 96.4186 72.9025 92.4314 80.9608C90.4562 84.9512 90.2851 89.3096 91.9615 92.9158L95.905 101.399C97.6169 105.082 96.0731 109.442 92.4634 111.12V111.12ZM56.6944 46.5431C55.2281 47.2247 53.8233 48.068 52.4912 49.0678C45.4956 54.3338 42.2021 63.6985 44.293 72.3748C46.4418 81.2933 53.194 88.0487 61.9103 89.9974C67.6523 91.2822 72.7036 95.5333 75.4177 101.372L78.547 108.104C78.7085 108.451 79.5569 110.159 80.4472 109.745L89.7987 105.398C90.3149 105.158 90.5352 104.536 90.2904 104.009L86.3468 95.5258C83.8473 90.1489 84.0392 83.7899 86.8668 78.0714C90.0053 71.7396 90.0784 64.401 87.0733 57.9364C84.1214 51.5863 78.5838 46.9347 71.8883 45.1744C66.7699 43.8318 61.4337 44.34 56.6944 46.5431V46.5431Z" fill="black"/>
</g>
</g>
<defs>
<clipPath id="clip0">
<rect width="797" height="758" fill="white" transform="translate(9 137)"/>
</clipPath>
<clipPath id="clip1">
<rect width="79.52" height="79.9905" fill="white" transform="translate(276.331 299.795) rotate(16.418)"/>
</clipPath>
<clipPath id="clip2">
<rect width="95" height="99" fill="white" transform="translate(428 129)"/>
</clipPath>
<clipPath id="clip3">
<rect width="99" height="101" fill="white" transform="translate(0.325226 42.5721) rotate(-24.9317)"/>
</clipPath>
</defs>
</svg>
